<?xml version="1.0" encoding="UTF-8" standalone="no"?>
<!DOCTYPE svg PUBLIC "-//W3C//DTD SVG 1.1//EN"
 "http://www.w3.org/Graphics/SVG/1.1/DTD/svg11.dtd">
<!-- Generated by graphviz version 8.1.0 (20230707.0739)
 -->
<!-- Pages: 1 -->
<svg width="519pt" height="287pt"
 viewBox="0.00 0.00 518.75 287.00" xmlns="http://www.w3.org/2000/svg" xmlns:xlink="http://www.w3.org/1999/xlink">
<g id="graph0" class="graph" transform="scale(1 1) rotate(0) translate(4 283)">
<polygon fill="white" stroke="none" points="-4,4 -4,-283 514.75,-283 514.75,4 -4,4"/>
<!-- dep_graph_viz.util -->
<g id="node1" class="node">
<title>dep_graph_viz.util</title>
<g id="a_node1"><a xlink:href="https://github.com/mivanit/dep-graph-viz/tree/refactor/util" xlink:title="dep_graph_viz.util">
<polygon fill="none" stroke="black" points="288.12,-252 285.12,-256 264.12,-256 261.12,-252 168.62,-252 168.62,-216 288.12,-216 288.12,-252"/>
<text text-anchor="middle" x="228.38" y="-228.57" font-family="Times New Roman,serif" font-size="14.00">dep_graph_viz.util</text>
</a>
</g>
</g>
<!-- dep_graph_viz.util.paths -->
<g id="node7" class="node">
<title>dep_graph_viz.util.paths</title>
<g id="a_node7"><a xlink:href="https://github.com/mivanit/dep-graph-viz/tree/refactor/util/paths.py" xlink:title="dep_graph_viz.util.paths">
<polygon fill="none" stroke="black" points="504.75,-279 357.5,-279 357.5,-243 510.75,-243 510.75,-273 504.75,-279"/>
<polyline fill="none" stroke="black" points="504.75,-279 504.75,-273"/>
<polyline fill="none" stroke="black" points="510.75,-273 504.75,-273"/>
<text text-anchor="middle" x="434.12" y="-255.57" font-family="Times New Roman,serif" font-size="14.00">dep_graph_viz.util.paths</text>
</a>
</g>
</g>
<!-- dep_graph_viz.util&#45;&gt;dep_graph_viz.util.paths -->
<g id="edge1" class="edge">
<title>dep_graph_viz.util&#45;&gt;dep_graph_viz.util.paths</title>
<path fill="none" stroke="black" stroke-width="2" d="M288.58,-241.85C306.04,-244.16 325.54,-246.74 344.42,-249.25"/>
<polygon fill="black" stroke="black" stroke-width="2" points="343.67,-253.07 354.04,-250.92 344.59,-246.13 343.67,-253.07"/>
</g>
<!-- dep_graph_viz.util.util -->
<g id="node8" class="node">
<title>dep_graph_viz.util.util</title>
<g id="a_node8"><a xlink:href="https://github.com/mivanit/dep-graph-viz/tree/refactor/util/util.py" xlink:title="dep_graph_viz.util.util">
<polygon fill="none" stroke="black" points="498,-225 364.25,-225 364.25,-189 504,-189 504,-219 498,-225"/>
<polyline fill="none" stroke="black" points="498,-225 498,-219"/>
<polyline fill="none" stroke="black" points="504,-219 498,-219"/>
<text text-anchor="middle" x="434.12" y="-201.57" font-family="Times New Roman,serif" font-size="14.00">dep_graph_viz.util.util</text>
</a>
</g>
</g>
<!-- dep_graph_viz.util&#45;&gt;dep_graph_viz.util.util -->
<g id="edge2" class="edge">
<title>dep_graph_viz.util&#45;&gt;dep_graph_viz.util.util</title>
<path fill="none" stroke="black" stroke-width="2" d="M288.58,-226.15C308.14,-223.56 330.26,-220.63 351.2,-217.86"/>
<polygon fill="black" stroke="black" stroke-width="2" points="351.61,-220.94 361.06,-216.15 350.69,-214 351.61,-220.94"/>
</g>
<!-- dep_graph_viz -->
<g id="node2" class="node">
<title>dep_graph_viz</title>
<g id="a_node2"><a xlink:href="https://github.com/mivanit/dep-graph-viz/tree/refactor/." xlink:title="dep_graph_viz">
<polygon fill="none" stroke="purple" points="99.25,-144 96.25,-148 75.25,-148 72.25,-144 0,-144 0,-108 99.25,-108 99.25,-144"/>
<text text-anchor="middle" x="49.62" y="-120.58" font-family="Times New Roman,serif" font-size="14.00">dep_graph_viz</text>
</a>
</g>
</g>
<!-- dep_graph_viz&#45;&gt;dep_graph_viz.util -->
<g id="edge3" class="edge">
<title>dep_graph_viz&#45;&gt;dep_graph_viz.util</title>
<path fill="none" stroke="black" stroke-width="3" d="M65.23,-144.41C80.74,-162.8 106.91,-190.61 135.25,-207 141.48,-210.6 148.24,-213.76 155.16,-216.52"/>
<polygon fill="black" stroke="black" stroke-width="3" points="153.55,-220.1 164.14,-220.2 155.92,-213.52 153.55,-220.1"/>
</g>
<!-- dep_graph_viz.config -->
<g id="node3" class="node">
<title>dep_graph_viz.config</title>
<g id="a_node3"><a xlink:href="https://github.com/mivanit/dep-graph-viz/tree/refactor/config.py" xlink:title="dep_graph_viz.config">
<polygon fill="none" stroke="black" points="291.5,-198 159.25,-198 159.25,-162 297.5,-162 297.5,-192 291.5,-198"/>
<polyline fill="none" stroke="black" points="291.5,-198 291.5,-192"/>
<polyline fill="none" stroke="black" points="297.5,-192 291.5,-192"/>
<text text-anchor="middle" x="228.38" y="-174.57" font-family="Times New Roman,serif" font-size="14.00">dep_graph_viz.config</text>
</a>
</g>
</g>
<!-- dep_graph_viz&#45;&gt;dep_graph_viz.config -->
<g id="edge4" class="edge">
<title>dep_graph_viz&#45;&gt;dep_graph_viz.config</title>
<path fill="none" stroke="black" stroke-width="2" d="M99.34,-141.76C111.08,-145.5 123.6,-149.43 135.25,-153 140.59,-154.64 146.12,-156.31 151.68,-157.97"/>
<polygon fill="black" stroke="black" stroke-width="2" points="151.3,-162.11 161.88,-161.61 153.3,-155.4 151.3,-162.11"/>
</g>
<!-- dep_graph_viz.dep_graph_viz -->
<g id="node4" class="node">
<title>dep_graph_viz.dep_graph_viz</title>
<g id="a_node4"><a xlink:href="https://github.com/mivanit/dep-graph-viz/tree/refactor/dep_graph_viz.py" xlink:title="dep_graph_viz.dep_graph_viz">
<polygon fill="none" stroke="black" points="315.5,-144 135.25,-144 135.25,-108 321.5,-108 321.5,-138 315.5,-144"/>
<polyline fill="none" stroke="black" points="315.5,-144 315.5,-138"/>
<polyline fill="none" stroke="black" points="321.5,-138 315.5,-138"/>
<text text-anchor="middle" x="228.38" y="-120.58" font-family="Times New Roman,serif" font-size="14.00">dep_graph_viz.dep_graph_viz</text>
</a>
</g>
</g>
<!-- dep_graph_viz&#45;&gt;dep_graph_viz.dep_graph_viz -->
<g id="edge5" class="edge">
<title>dep_graph_viz&#45;&gt;dep_graph_viz.dep_graph_viz</title>
<path fill="none" stroke="black" stroke-width="2" d="M99.39,-126C106.61,-126 114.28,-126 122.13,-126"/>
<polygon fill="black" stroke="black" stroke-width="2" points="122.02,-129.5 132.02,-126 122.02,-122.5 122.02,-129.5"/>
</g>
<!-- dep_graph_viz.html -->
<g id="node5" class="node">
<title>dep_graph_viz.html</title>
<g id="a_node5"><a xlink:href="https://github.com/mivanit/dep-graph-viz/tree/refactor/html.py" xlink:title="dep_graph_viz.html">
<polygon fill="none" stroke="black" points="285.88,-90 164.88,-90 164.88,-54 291.88,-54 291.88,-84 285.88,-90"/>
<polyline fill="none" stroke="black" points="285.88,-90 285.88,-84"/>
<polyline fill="none" stroke="black" points="291.88,-84 285.88,-84"/>
<text text-anchor="middle" x="228.38" y="-66.58" font-family="Times New Roman,serif" font-size="14.00">dep_graph_viz.html</text>
</a>
</g>
</g>
<!-- dep_graph_viz&#45;&gt;dep_graph_viz.html -->
<g id="edge6" class="edge">
<title>dep_graph_viz&#45;&gt;dep_graph_viz.html</title>
<path fill="none" stroke="black" stroke-width="2" d="M99.34,-110.24C111.08,-106.5 123.6,-102.57 135.25,-99 140.69,-97.34 146.31,-95.64 151.97,-93.94"/>
<polygon fill="black" stroke="black" stroke-width="2" points="153.79,-96.45 162.38,-90.25 151.8,-89.75 153.79,-96.45"/>
</g>
<!-- dep_graph_viz.__main__ -->
<g id="node6" class="node">
<title>dep_graph_viz.__main__</title>
<g id="a_node6"><a xlink:href="https://github.com/mivanit/dep-graph-viz/tree/refactor/__main__.py" xlink:title="dep_graph_viz.__main__">
<polygon fill="none" stroke="black" points="302,-36 148.75,-36 148.75,0 308,0 308,-30 302,-36"/>
<polyline fill="none" stroke="black" points="302,-36 302,-30"/>
<polyline fill="none" stroke="black" points="308,-30 302,-30"/>
<text text-anchor="middle" x="228.38" y="-12.57" font-family="Times New Roman,serif" font-size="14.00">dep_graph_viz.__main__</text>
</a>
</g>
</g>
<!-- dep_graph_viz&#45;&gt;dep_graph_viz.__main__ -->
<g id="edge7" class="edge">
<title>dep_graph_viz&#45;&gt;dep_graph_viz.__main__</title>
<path fill="none" stroke="black" stroke-width="2" d="M65.23,-107.59C80.74,-89.2 106.91,-61.39 135.25,-45 137.13,-43.91 139.07,-42.86 141.04,-41.85"/>
<polygon fill="black" stroke="black" stroke-width="2" points="143.05,-44.86 150.66,-37.49 140.12,-38.5 143.05,-44.86"/>
</g>
</g>
</svg>
