<?xml version="1.0" encoding="UTF-8" standalone="no"?>
<!DOCTYPE svg PUBLIC "-//W3C//DTD SVG 1.1//EN"
 "http://www.w3.org/Graphics/SVG/1.1/DTD/svg11.dtd">
<!-- Generated by graphviz version 8.1.0 (20230707.0739)
 -->
<!-- Pages: 1 -->
<svg width="843pt" height="852pt"
 viewBox="0.00 0.00 842.75 851.91" xmlns="http://www.w3.org/2000/svg" xmlns:xlink="http://www.w3.org/1999/xlink">
<g id="graph0" class="graph" transform="scale(1 1) rotate(0) translate(4 847.91)">
<polygon fill="white" stroke="none" points="-4,4 -4,-847.91 838.75,-847.91 838.75,4 -4,4"/>
<!-- util -->
<g id="node1" class="node">
<title>util</title>
<g id="a_node1"><a xlink:href="https://github.com/mivanit/dep-graph-viz/tree/refactor/util" xlink:title="util">
<polygon fill="none" stroke="black" points="86.75,-97 83.75,-101 62.75,-101 59.75,-97 32.75,-97 32.75,-61 86.75,-61 86.75,-97"/>
<text text-anchor="middle" x="59.75" y="-73.58" font-family="Times New Roman,serif" font-size="14.00">util</text>
</a>
</g>
</g>
<!-- util.paths -->
<g id="node7" class="node">
<title>util.paths</title>
<g id="a_node7"><a xlink:href="https://github.com/mivanit/dep-graph-viz/tree/refactor/util/paths.py" xlink:title="util.paths">
<polygon fill="none" stroke="black" points="215.75,-166 155.5,-166 155.5,-130 221.75,-130 221.75,-160 215.75,-166"/>
<polyline fill="none" stroke="black" points="215.75,-166 215.75,-160"/>
<polyline fill="none" stroke="black" points="221.75,-160 215.75,-160"/>
<text text-anchor="middle" x="188.62" y="-142.57" font-family="Times New Roman,serif" font-size="14.00">util.paths</text>
</a>
</g>
</g>
<!-- util&#45;&gt;util.paths -->
<g id="edge1" class="edge">
<title>util&#45;&gt;util.paths</title>
<path fill="none" stroke="black" stroke-width="2" d="M87.11,-81.91C97.36,-85.89 109.11,-91.44 119.5,-97 133.29,-104.38 148.12,-113.39 160.41,-121.93"/>
<polygon fill="black" stroke="black" stroke-width="2" points="158.75,-125.51 168.88,-128.59 162.88,-119.86 158.75,-125.51"/>
</g>
<!-- util.util -->
<g id="node8" class="node">
<title>util.util</title>
<g id="a_node8"><a xlink:href="https://github.com/mivanit/dep-graph-viz/tree/refactor/util/util.py" xlink:title="util.util">
<polygon fill="none" stroke="black" points="365.5,-312 317.5,-312 317.5,-276 371.5,-276 371.5,-306 365.5,-312"/>
<polyline fill="none" stroke="black" points="365.5,-312 365.5,-306"/>
<polyline fill="none" stroke="black" points="371.5,-306 365.5,-306"/>
<text text-anchor="middle" x="344.5" y="-288.57" font-family="Times New Roman,serif" font-size="14.00">util.util</text>
</a>
</g>
</g>
<!-- util&#45;&gt;util.util -->
<g id="edge2" class="edge">
<title>util&#45;&gt;util.util</title>
<path fill="none" stroke="black" stroke-width="2" d="M87.02,-78.13C122.62,-78.46 185.84,-84.6 221.75,-121 268.69,-168.57 212.01,-218.27 257.75,-267 269.8,-279.84 287.89,-286.61 304.35,-290.16"/>
<polygon fill="black" stroke="black" stroke-width="2" points="304.6,-294.11 315.06,-292.37 305.8,-287.21 304.6,-294.11"/>
</g>
<!-- ROOT -->
<g id="node2" class="node">
<title>ROOT</title>
<g id="a_node2"><a xlink:href="https://github.com/mivanit/dep-graph-viz/tree/refactor/." xlink:title="ROOT">
<polygon fill="none" stroke="purple" points="692.38,-411 689.38,-415 668.38,-415 665.38,-411 636.62,-411 636.62,-375 692.38,-375 692.38,-411"/>
<text text-anchor="middle" x="664.5" y="-387.57" font-family="Times New Roman,serif" font-size="14.00">ROOT</text>
</a>
</g>
</g>
<!-- ROOT&#45;&gt;util -->
<g id="edge3" class="edge">
<title>ROOT&#45;&gt;util</title>
<path fill="none" stroke="black" stroke-width="3" d="M651.55,-374.62C620.76,-328.75 533.9,-208.36 431.25,-145 325.4,-79.67 172.08,-75.01 100.43,-76.91"/>
<polygon fill="black" stroke="black" stroke-width="3" points="100.7,-73.54 90.83,-77.38 100.94,-80.53 100.7,-73.54"/>
</g>
<!-- config -->
<g id="node3" class="node">
<title>config</title>
<g id="a_node3"><a xlink:href="https://github.com/mivanit/dep-graph-viz/tree/refactor/config.py" xlink:title="config">
<polygon fill="none" stroke="black" points="819.62,-738 771.62,-738 771.62,-702 825.62,-702 825.62,-732 819.62,-738"/>
<polyline fill="none" stroke="black" points="819.62,-738 819.62,-732"/>
<polyline fill="none" stroke="black" points="825.62,-732 819.62,-732"/>
<text text-anchor="middle" x="798.62" y="-714.58" font-family="Times New Roman,serif" font-size="14.00">config</text>
</a>
</g>
</g>
<!-- ROOT&#45;&gt;config -->
<g id="edge4" class="edge">
<title>ROOT&#45;&gt;config</title>
<path fill="none" stroke="black" stroke-width="2" d="M692.57,-399.12C704.58,-403.16 717.91,-409.67 726.5,-420 760.67,-461.11 784.82,-620.7 793.78,-688.86"/>
<polygon fill="black" stroke="black" stroke-width="2" points="790.67,-689.1 795.41,-698.57 797.61,-688.21 790.67,-689.1"/>
</g>
<!-- dep_graph_viz -->
<g id="node4" class="node">
<title>dep_graph_viz</title>
<g id="a_node4"><a xlink:href="https://github.com/mivanit/dep-graph-viz/tree/refactor/dep_graph_viz.py" xlink:title="dep_graph_viz">
<polygon fill="none" stroke="black" points="560.5,-480 467.25,-480 467.25,-444 566.5,-444 566.5,-474 560.5,-480"/>
<polyline fill="none" stroke="black" points="560.5,-480 560.5,-474"/>
<polyline fill="none" stroke="black" points="566.5,-474 560.5,-474"/>
<text text-anchor="middle" x="516.88" y="-456.57" font-family="Times New Roman,serif" font-size="14.00">dep_graph_viz</text>
</a>
</g>
</g>
<!-- ROOT&#45;&gt;dep_graph_viz -->
<g id="edge5" class="edge">
<title>ROOT&#45;&gt;dep_graph_viz</title>
<path fill="none" stroke="black" stroke-width="2" d="M639.64,-411.44C628.33,-417.21 614.66,-423.29 602.5,-429 594.72,-432.65 586.58,-436.57 578.55,-440.41"/>
<polygon fill="black" stroke="black" stroke-width="2" points="576.44,-437.49 568.92,-444.95 579.45,-443.81 576.44,-437.49"/>
</g>
<!-- html -->
<g id="node5" class="node">
<title>html</title>
<g id="a_node5"><a xlink:href="https://github.com/mivanit/dep-graph-viz/tree/refactor/html.py" xlink:title="html">
<polygon fill="none" stroke="black" points="819.62,-465 771.62,-465 771.62,-429 825.62,-429 825.62,-459 819.62,-465"/>
<polyline fill="none" stroke="black" points="819.62,-465 819.62,-459"/>
<polyline fill="none" stroke="black" points="825.62,-459 819.62,-459"/>
<text text-anchor="middle" x="798.62" y="-441.57" font-family="Times New Roman,serif" font-size="14.00">html</text>
</a>
</g>
</g>
<!-- ROOT&#45;&gt;html -->
<g id="edge6" class="edge">
<title>ROOT&#45;&gt;html</title>
<path fill="none" stroke="black" stroke-width="2" d="M692.56,-398.49C711.96,-405.08 738.35,-415.67 759.84,-425.39"/>
<polygon fill="black" stroke="black" stroke-width="2" points="758.96,-428.77 769.51,-429.82 761.92,-422.43 758.96,-428.77"/>
</g>
<!-- ROOT&#45;&gt;html -->
<g id="edge7" class="edge">
<title>ROOT&#45;&gt;html</title>
<path fill="none" stroke="red" d="M692.56,-409.63C712.41,-419.11 739.59,-430.4 761.33,-438.26"/>
<polygon fill="red" stroke="red" points="759.91,-441.83 770.51,-441.83 762.22,-435.22 759.91,-441.83"/>
</g>
<!-- __main__ -->
<g id="node6" class="node">
<title>__main__</title>
<g id="a_node6"><a xlink:href="https://github.com/mivanit/dep-graph-viz/tree/refactor/__main__.py" xlink:title="__main__">
<polygon fill="none" stroke="black" points="828.75,-411 762.5,-411 762.5,-375 834.75,-375 834.75,-405 828.75,-411"/>
<polyline fill="none" stroke="black" points="828.75,-411 828.75,-405"/>
<polyline fill="none" stroke="black" points="834.75,-405 828.75,-405"/>
<text text-anchor="middle" x="798.62" y="-387.57" font-family="Times New Roman,serif" font-size="14.00">__main__</text>
</a>
</g>
</g>
<!-- ROOT&#45;&gt;__main__ -->
<g id="edge8" class="edge">
<title>ROOT&#45;&gt;__main__</title>
<path fill="none" stroke="black" stroke-width="2" d="M692.56,-387.43C708.87,-386.3 730.14,-385.98 749.26,-386.47"/>
<polygon fill="black" stroke="black" stroke-width="2" points="748.95,-390.07 759.08,-386.94 749.21,-383.07 748.95,-390.07"/>
</g>
<!-- ROOT&#45;&gt;__main__ -->
<g id="edge9" class="edge">
<title>ROOT&#45;&gt;__main__</title>
<path fill="none" stroke="red" d="M692.56,-398.57C709.42,-399.73 731.57,-400.04 751.19,-399.48"/>
<polygon fill="red" stroke="red" points="751.22,-402.94 761.08,-399.06 750.95,-395.95 751.22,-402.94"/>
</g>
<!-- config&#45;&gt;dep_graph_viz -->
<g id="edge10" class="edge">
<title>config&#45;&gt;dep_graph_viz</title>
<path fill="none" stroke="red" d="M777.6,-701.53C728.39,-656.15 601.46,-539.09 545.3,-487.29"/>
<polygon fill="red" stroke="red" points="548.27,-485.35 538.55,-481.14 543.52,-490.49 548.27,-485.35"/>
</g>
<!-- dep_graph_viz&#45;&gt;ROOT -->
<g id="edge11" class="edge">
<title>dep_graph_viz&#45;&gt;ROOT</title>
<path fill="none" stroke="blue" stroke-dasharray="5,2" d="M539.31,-443.7C556.34,-433.4 580.82,-421.17 602.5,-411 610.15,-407.41 618.4,-403.67 626.29,-400.37"/>
<polygon fill="blue" stroke="blue" points="627.38,-403.3 635.36,-396.33 624.77,-396.8 627.38,-403.3"/>
</g>
<!-- html&#45;&gt;dep_graph_viz -->
<g id="edge12" class="edge">
<title>html&#45;&gt;dep_graph_viz</title>
<path fill="none" stroke="red" d="M771.27,-459.63C758.14,-465.23 741.83,-471.19 726.5,-474 676.87,-483.1 619.6,-478.77 577.63,-472.92"/>
<polygon fill="red" stroke="red" points="578.16,-469.31 567.76,-471.32 577.14,-476.24 578.16,-469.31"/>
</g>
<!-- util.paths&#45;&gt;util -->
<g id="edge13" class="edge">
<title>util.paths&#45;&gt;util</title>
<path fill="none" stroke="blue" stroke-dasharray="5,2" d="M155.18,-135.39C144.04,-128.93 131.38,-121.36 119.5,-115 111.55,-110.74 102.8,-106.5 94.54,-102.4"/>
<polygon fill="blue" stroke="blue" points="96.3,-98.86 85.8,-97.48 93.15,-105.11 96.3,-98.86"/>
</g>
<!-- util.paths&#45;&gt;dep_graph_viz -->
<g id="edge14" class="edge">
<title>util.paths&#45;&gt;dep_graph_viz</title>
<path fill="none" stroke="red" d="M221.96,-147.55C273.08,-148.62 372.77,-158.19 431.25,-213 494.59,-272.36 510.52,-380.89 514.53,-432.81"/>
<polygon fill="red" stroke="red" points="511.09,-432.83 515.25,-442.58 518.07,-432.36 511.09,-432.83"/>
</g>
<!-- util.paths&#45;&gt;util.util -->
<g id="edge15" class="edge">
<title>util.paths&#45;&gt;util.util</title>
<path fill="none" stroke="red" d="M210.34,-166.18C214.46,-170.44 218.51,-175.16 221.75,-180 245.03,-214.78 226.9,-238.73 257.75,-267 271.15,-279.28 290.11,-285.98 306.8,-289.63"/>
<polygon fill="red" stroke="red" points="305.88,-293.2 316.35,-291.61 307.17,-286.32 305.88,-293.2"/>
</g>
<!-- util.util&#45;&gt;dep_graph_viz -->
<g id="edge16" class="edge">
<title>util.util&#45;&gt;dep_graph_viz</title>
<path fill="none" stroke="red" d="M371.96,-303.17C390.06,-310.37 413.85,-321.73 431.25,-337 462.83,-364.71 488.04,-406.73 502.48,-434.28"/>
<polygon fill="red" stroke="red" points="499.64,-435.4 507.3,-442.72 505.87,-432.22 499.64,-435.4"/>
</g>
<!-- typing -->
<g id="node9" class="node">
<title>typing</title>
<polygon fill="none" stroke="purple" points="371.5,-761 321.5,-761 317.5,-757 317.5,-725 367.5,-725 371.5,-729 371.5,-761"/>
<polyline fill="none" stroke="purple" points="367.5,-757 317.5,-757"/>
<polyline fill="none" stroke="purple" points="367.5,-757 367.5,-725"/>
<polyline fill="none" stroke="purple" points="367.5,-757 371.5,-761"/>
<text text-anchor="middle" x="344.5" y="-737.58" font-family="Times New Roman,serif" font-size="14.00">typing</text>
</g>
<!-- typing&#45;&gt;config -->
<g id="edge17" class="edge">
<title>typing&#45;&gt;config</title>
<path fill="none" stroke="purple" stroke-dasharray="1,5" d="M371.76,-741.66C448.32,-737.77 671.44,-726.42 760.39,-721.89"/>
<polygon fill="purple" stroke="purple" points="760.48,-725.34 770.29,-721.34 760.13,-718.35 760.48,-725.34"/>
</g>
<!-- typing&#45;&gt;dep_graph_viz -->
<g id="edge18" class="edge">
<title>typing&#45;&gt;dep_graph_viz</title>
<path fill="none" stroke="purple" stroke-dasharray="1,5" d="M371.97,-740.95C390.79,-738.15 415.45,-731.54 431.25,-716 494.41,-653.88 510.43,-543.48 514.49,-491.11"/>
<polygon fill="purple" stroke="purple" points="518.04,-491.48 515.23,-481.27 511.06,-491.01 518.04,-491.48"/>
</g>
<!-- copy -->
<g id="node10" class="node">
<title>copy</title>
<polygon fill="none" stroke="purple" points="371.5,-707 321.5,-707 317.5,-703 317.5,-671 367.5,-671 371.5,-675 371.5,-707"/>
<polyline fill="none" stroke="purple" points="367.5,-703 317.5,-703"/>
<polyline fill="none" stroke="purple" points="367.5,-703 367.5,-671"/>
<polyline fill="none" stroke="purple" points="367.5,-703 371.5,-707"/>
<text text-anchor="middle" x="344.5" y="-683.58" font-family="Times New Roman,serif" font-size="14.00">copy</text>
</g>
<!-- copy&#45;&gt;config -->
<g id="edge19" class="edge">
<title>copy&#45;&gt;config</title>
<path fill="none" stroke="purple" stroke-dasharray="1,5" d="M371.76,-690.8C448.32,-696.05 671.44,-711.35 760.39,-717.45"/>
<polygon fill="purple" stroke="purple" points="760.07,-721 770.29,-718.19 760.55,-714.02 760.07,-721"/>
</g>
<!-- copy&#45;&gt;dep_graph_viz -->
<g id="edge20" class="edge">
<title>copy&#45;&gt;dep_graph_viz</title>
<path fill="none" stroke="purple" stroke-dasharray="1,5" d="M371.61,-686.57C390.26,-683.58 414.85,-676.91 431.25,-662 481.96,-615.91 503.32,-534.45 511.45,-491.08"/>
<polygon fill="purple" stroke="purple" points="515.04,-491.87 513.32,-481.41 508.14,-490.66 515.04,-491.87"/>
</g>
<!-- os -->
<g id="node11" class="node">
<title>os</title>
<polygon fill="none" stroke="purple" points="86.75,-521 36.75,-521 32.75,-517 32.75,-485 82.75,-485 86.75,-489 86.75,-521"/>
<polyline fill="none" stroke="purple" points="82.75,-517 32.75,-517"/>
<polyline fill="none" stroke="purple" points="82.75,-517 82.75,-485"/>
<polyline fill="none" stroke="purple" points="82.75,-517 86.75,-521"/>
<text text-anchor="middle" x="59.75" y="-497.57" font-family="Times New Roman,serif" font-size="14.00">os</text>
</g>
<!-- os&#45;&gt;config -->
<g id="edge21" class="edge">
<title>os&#45;&gt;config</title>
<path fill="none" stroke="purple" stroke-dasharray="1,5" d="M66.33,-521.45C84.13,-576.99 145.13,-743.74 257.75,-824 289.54,-846.66 304.46,-843 343.5,-843 343.5,-843 343.5,-843 517.88,-843 614.52,-843 715.27,-780.72 765.35,-744.79"/>
<polygon fill="purple" stroke="purple" points="767.08,-747.13 773.1,-738.41 762.96,-741.48 767.08,-747.13"/>
</g>
<!-- os&#45;&gt;dep_graph_viz -->
<g id="edge22" class="edge">
<title>os&#45;&gt;dep_graph_viz</title>
<path fill="none" stroke="purple" stroke-dasharray="1,5" d="M87.05,-509.46C148.7,-523.42 306.75,-552.34 431.25,-516 451.11,-510.2 470.75,-498.17 486.1,-486.93"/>
<polygon fill="purple" stroke="purple" points="487.77,-489.3 493.61,-480.46 483.53,-483.73 487.77,-489.3"/>
</g>
<!-- os&#45;&gt;util.paths -->
<g id="edge23" class="edge">
<title>os&#45;&gt;util.paths</title>
<path fill="none" stroke="purple" stroke-dasharray="1,5" d="M81.75,-484.58C94.74,-471.95 110.59,-454.09 119.5,-435 161.77,-344.42 125.02,-308.19 155.5,-213 159.53,-200.43 165.65,-187.24 171.47,-176.06"/>
<polygon fill="purple" stroke="purple" points="175,-177.89 176.66,-167.43 168.84,-174.57 175,-177.89"/>
</g>
<!-- os&#45;&gt;util.util -->
<g id="edge24" class="edge">
<title>os&#45;&gt;util.util</title>
<path fill="none" stroke="purple" stroke-dasharray="1,5" d="M85.35,-484.82C136.11,-447.3 252.51,-361.26 310.05,-318.73"/>
<polygon fill="purple" stroke="purple" points="311.8,-321.05 317.76,-312.29 307.64,-315.42 311.8,-321.05"/>
</g>
<!-- subprocess -->
<g id="node12" class="node">
<title>subprocess</title>
<polygon fill="none" stroke="purple" points="384.75,-815 308.25,-815 304.25,-811 304.25,-779 380.75,-779 384.75,-783 384.75,-815"/>
<polyline fill="none" stroke="purple" points="380.75,-811 304.25,-811"/>
<polyline fill="none" stroke="purple" points="380.75,-811 380.75,-779"/>
<polyline fill="none" stroke="purple" points="380.75,-811 384.75,-815"/>
<text text-anchor="middle" x="344.5" y="-791.58" font-family="Times New Roman,serif" font-size="14.00">subprocess</text>
</g>
<!-- subprocess&#45;&gt;config -->
<g id="edge25" class="edge">
<title>subprocess&#45;&gt;config</title>
<path fill="none" stroke="purple" stroke-dasharray="1,5" d="M385.01,-792.75C454.53,-784.9 603.07,-766.48 726.5,-740 737.69,-737.6 749.73,-734.44 760.65,-731.35"/>
<polygon fill="purple" stroke="purple" points="761.51,-734.45 770.14,-728.3 759.56,-727.73 761.51,-734.45"/>
</g>
<!-- subprocess&#45;&gt;dep_graph_viz -->
<g id="edge26" class="edge">
<title>subprocess&#45;&gt;dep_graph_viz</title>
<path fill="none" stroke="purple" stroke-dasharray="1,5" d="M384.86,-792.93C401.19,-789.33 419.12,-782.59 431.25,-770 507.01,-691.39 516.29,-551.53 516.54,-491.12"/>
<polygon fill="purple" stroke="purple" points="520.04,-491.12 516.49,-481.14 513.04,-491.16 520.04,-491.12"/>
</g>
<!-- warnings -->
<g id="node13" class="node">
<title>warnings</title>
<polygon fill="none" stroke="purple" points="92.5,-313 31,-313 27,-309 27,-277 88.5,-277 92.5,-281 92.5,-313"/>
<polyline fill="none" stroke="purple" points="88.5,-309 27,-309"/>
<polyline fill="none" stroke="purple" points="88.5,-309 88.5,-277"/>
<polyline fill="none" stroke="purple" points="88.5,-309 92.5,-313"/>
<text text-anchor="middle" x="59.75" y="-289.57" font-family="Times New Roman,serif" font-size="14.00">warnings</text>
</g>
<!-- warnings&#45;&gt;dep_graph_viz -->
<g id="edge27" class="edge">
<title>warnings&#45;&gt;dep_graph_viz</title>
<path fill="none" stroke="purple" stroke-dasharray="1,5" d="M76.07,-313.23C93.25,-332.26 123,-361.21 155.5,-375 268.9,-423.11 315.75,-360.18 431.25,-403 451.94,-410.67 472.31,-424.62 487.88,-437.03"/>
<polygon fill="purple" stroke="purple" points="485.06,-440.07 495.01,-443.72 489.51,-434.66 485.06,-440.07"/>
</g>
<!-- warnings&#45;&gt;util.paths -->
<g id="edge28" class="edge">
<title>warnings&#45;&gt;util.paths</title>
<path fill="none" stroke="purple" stroke-dasharray="1,5" d="M92.78,-285.4C102.34,-281.28 112.2,-275.62 119.5,-268 148.74,-237.49 132.07,-215.16 155.5,-180 156.81,-178.03 158.26,-176.08 159.79,-174.18"/>
<polygon fill="purple" stroke="purple" points="161.88,-176.98 165.9,-167.17 156.64,-172.33 161.88,-176.98"/>
</g>
<!-- warnings&#45;&gt;util.util -->
<g id="edge29" class="edge">
<title>warnings&#45;&gt;util.util</title>
<path fill="none" stroke="purple" stroke-dasharray="1,5" d="M92.86,-284.12C102.1,-280 111.76,-274.67 119.5,-268 141.64,-248.93 129.8,-226.89 155.5,-213 181.4,-199 195.79,-199.11 221.75,-213 247.18,-226.61 234.68,-249.68 257.75,-267 271.85,-277.58 290.2,-284.08 306.3,-288.04"/>
<polygon fill="purple" stroke="purple" points="305.49,-291.67 316.01,-290.4 307,-284.83 305.49,-291.67"/>
</g>
<!-- pydot -->
<g id="node14" class="node">
<title>pydot</title>
<polygon fill="none" stroke="purple" points="371.5,-653 321.5,-653 317.5,-649 317.5,-617 367.5,-617 371.5,-621 371.5,-653"/>
<polyline fill="none" stroke="purple" points="367.5,-649 317.5,-649"/>
<polyline fill="none" stroke="purple" points="367.5,-649 367.5,-617"/>
<polyline fill="none" stroke="purple" points="367.5,-649 371.5,-653"/>
<text text-anchor="middle" x="344.5" y="-629.58" font-family="Times New Roman,serif" font-size="14.00">pydot</text>
</g>
<!-- pydot&#45;&gt;dep_graph_viz -->
<g id="edge30" class="edge">
<title>pydot&#45;&gt;dep_graph_viz</title>
<path fill="none" stroke="purple" stroke-dasharray="1,5" d="M371.86,-631.81C390.15,-628.45 414.19,-621.66 431.25,-608 469.87,-577.07 494.37,-523.4 506.57,-490.46"/>
<polygon fill="purple" stroke="purple" points="510.18,-491.74 510.23,-481.14 503.59,-489.39 510.18,-491.74"/>
</g>
<!-- networkx.drawing.nx_pydot -->
<g id="node15" class="node">
<title>networkx.drawing.nx_pydot</title>
<polygon fill="none" stroke="purple" points="431.25,-599 261.75,-599 257.75,-595 257.75,-563 427.25,-563 431.25,-567 431.25,-599"/>
<polyline fill="none" stroke="purple" points="427.25,-595 257.75,-595"/>
<polyline fill="none" stroke="purple" points="427.25,-595 427.25,-563"/>
<polyline fill="none" stroke="purple" points="427.25,-595 431.25,-599"/>
<text text-anchor="middle" x="344.5" y="-575.58" font-family="Times New Roman,serif" font-size="14.00">networkx.drawing.nx_pydot</text>
</g>
<!-- networkx.drawing.nx_pydot&#45;&gt;dep_graph_viz -->
<g id="edge31" class="edge">
<title>networkx.drawing.nx_pydot&#45;&gt;dep_graph_viz</title>
<path fill="none" stroke="purple" stroke-dasharray="1,5" d="M405.29,-562.61C414.31,-558.74 423.27,-554.21 431.25,-549 456.23,-532.7 479.47,-507.82 495.24,-488.83"/>
<polygon fill="purple" stroke="purple" points="498.57,-491.29 502.15,-481.31 493.14,-486.87 498.57,-491.29"/>
</g>
<!-- dataclasses -->
<g id="node16" class="node">
<title>dataclasses</title>
<polygon fill="none" stroke="purple" points="384,-507 309,-507 305,-503 305,-471 380,-471 384,-475 384,-507"/>
<polyline fill="none" stroke="purple" points="380,-503 305,-503"/>
<polyline fill="none" stroke="purple" points="380,-503 380,-471"/>
<polyline fill="none" stroke="purple" points="380,-503 384,-507"/>
<text text-anchor="middle" x="344.5" y="-483.57" font-family="Times New Roman,serif" font-size="14.00">dataclasses</text>
</g>
<!-- dataclasses&#45;&gt;dep_graph_viz -->
<g id="edge32" class="edge">
<title>dataclasses&#45;&gt;dep_graph_viz</title>
<path fill="none" stroke="purple" stroke-dasharray="1,5" d="M384.16,-482.87C405.45,-479.5 432.32,-475.24 456.24,-471.45"/>
<polygon fill="purple" stroke="purple" points="456.66,-474.77 465.98,-469.75 455.56,-467.86 456.66,-474.77"/>
</g>
<!-- muutils.dictmagic -->
<g id="node17" class="node">
<title>muutils.dictmagic</title>
<polygon fill="none" stroke="purple" points="401.25,-453 291.75,-453 287.75,-449 287.75,-417 397.25,-417 401.25,-421 401.25,-453"/>
<polyline fill="none" stroke="purple" points="397.25,-449 287.75,-449"/>
<polyline fill="none" stroke="purple" points="397.25,-449 397.25,-417"/>
<polyline fill="none" stroke="purple" points="397.25,-449 401.25,-453"/>
<text text-anchor="middle" x="344.5" y="-429.57" font-family="Times New Roman,serif" font-size="14.00">muutils.dictmagic</text>
</g>
<!-- muutils.dictmagic&#45;&gt;dep_graph_viz -->
<g id="edge33" class="edge">
<title>muutils.dictmagic&#45;&gt;dep_graph_viz</title>
<path fill="none" stroke="purple" stroke-dasharray="1,5" d="M401.29,-443.84C418.81,-446.62 438.22,-449.69 456.01,-452.51"/>
<polygon fill="purple" stroke="purple" points="455.42,-456.12 465.85,-454.23 456.52,-449.21 455.42,-456.12"/>
</g>
<!-- fire -->
<g id="node18" class="node">
<title>fire</title>
<polygon fill="none" stroke="purple" points="371.5,-36 321.5,-36 317.5,-32 317.5,0 367.5,0 371.5,-4 371.5,-36"/>
<polyline fill="none" stroke="purple" points="367.5,-32 317.5,-32"/>
<polyline fill="none" stroke="purple" points="367.5,-32 367.5,0"/>
<polyline fill="none" stroke="purple" points="367.5,-32 371.5,-36"/>
<text text-anchor="middle" x="344.5" y="-12.57" font-family="Times New Roman,serif" font-size="14.00">fire</text>
</g>
<!-- fire&#45;&gt;dep_graph_viz -->
<g id="edge34" class="edge">
<title>fire&#45;&gt;dep_graph_viz</title>
<path fill="none" stroke="purple" stroke-dasharray="1,5" d="M359.22,-36.4C377.86,-62.17 411.17,-111.01 431.25,-157 473.54,-253.85 500.05,-377.32 510.62,-432.75"/>
<polygon fill="purple" stroke="purple" points="507.36,-433.33 512.64,-442.51 514.24,-432.04 507.36,-433.33"/>
</g>
<!-- fire&#45;&gt;__main__ -->
<g id="edge35" class="edge">
<title>fire&#45;&gt;__main__</title>
<path fill="none" stroke="purple" stroke-dasharray="1,5" d="M371.98,-15.29C415.96,-12.14 505.27,-11.54 566.5,-50 689.48,-127.24 762.4,-296.51 787.6,-364.19"/>
<polygon fill="purple" stroke="purple" points="784.65,-365.32 791.36,-373.52 791.23,-362.93 784.65,-365.32"/>
</g>
<!-- networkx -->
<g id="node19" class="node">
<title>networkx</title>
<polygon fill="none" stroke="purple" points="378.38,-258 314.62,-258 310.62,-254 310.62,-222 374.38,-222 378.38,-226 378.38,-258"/>
<polyline fill="none" stroke="purple" points="374.38,-254 310.62,-254"/>
<polyline fill="none" stroke="purple" points="374.38,-254 374.38,-222"/>
<polyline fill="none" stroke="purple" points="374.38,-254 378.38,-258"/>
<text text-anchor="middle" x="344.5" y="-234.57" font-family="Times New Roman,serif" font-size="14.00">networkx</text>
</g>
<!-- networkx&#45;&gt;dep_graph_viz -->
<g id="edge36" class="edge">
<title>networkx&#45;&gt;dep_graph_viz</title>
<path fill="none" stroke="purple" stroke-dasharray="1,5" d="M378.49,-243.72C395.97,-247.2 416.75,-253.94 431.25,-267 480.86,-311.68 502.61,-390.6 511.11,-433.05"/>
<polygon fill="purple" stroke="purple" points="507.83,-433.57 513.12,-442.75 514.71,-432.27 507.83,-433.57"/>
</g>
<!-- json -->
<g id="node20" class="node">
<title>json</title>
<polygon fill="none" stroke="purple" points="86.75,-426 36.75,-426 32.75,-422 32.75,-390 82.75,-390 86.75,-394 86.75,-426"/>
<polyline fill="none" stroke="purple" points="82.75,-422 32.75,-422"/>
<polyline fill="none" stroke="purple" points="82.75,-422 82.75,-390"/>
<polyline fill="none" stroke="purple" points="82.75,-422 86.75,-426"/>
<text text-anchor="middle" x="59.75" y="-402.57" font-family="Times New Roman,serif" font-size="14.00">json</text>
</g>
<!-- json&#45;&gt;dep_graph_viz -->
<g id="edge37" class="edge">
<title>json&#45;&gt;dep_graph_viz</title>
<path fill="none" stroke="purple" stroke-dasharray="1,5" d="M87.08,-407.99C171.66,-407.98 430.99,-407.92 431.25,-408 451.11,-413.8 470.75,-425.83 486.1,-437.07"/>
<polygon fill="purple" stroke="purple" points="483.53,-440.27 493.61,-443.54 487.77,-434.7 483.53,-440.27"/>
</g>
<!-- json&#45;&gt;util.paths -->
<g id="edge38" class="edge">
<title>json&#45;&gt;util.paths</title>
<path fill="none" stroke="purple" stroke-dasharray="1,5" d="M75.42,-389.81C88.41,-373.01 107.16,-346.96 119.5,-322 142.11,-276.27 136.15,-260.21 155.5,-213 160.54,-200.69 166.9,-187.47 172.62,-176.19"/>
<polygon fill="purple" stroke="purple" points="176.17,-177.95 177.64,-167.45 169.95,-174.74 176.17,-177.95"/>
</g>
<!-- importlib.resources -->
<g id="node21" class="node">
<title>importlib.resources</title>
<polygon fill="none" stroke="purple" points="726.5,-465 606.5,-465 602.5,-461 602.5,-429 722.5,-429 726.5,-433 726.5,-465"/>
<polyline fill="none" stroke="purple" points="722.5,-461 602.5,-461"/>
<polyline fill="none" stroke="purple" points="722.5,-461 722.5,-429"/>
<polyline fill="none" stroke="purple" points="722.5,-461 726.5,-465"/>
<text text-anchor="middle" x="664.5" y="-441.57" font-family="Times New Roman,serif" font-size="14.00">importlib.resources</text>
</g>
<!-- importlib.resources&#45;&gt;html -->
<g id="edge39" class="edge">
<title>importlib.resources&#45;&gt;html</title>
<path fill="none" stroke="purple" stroke-dasharray="1,5" d="M726.92,-447C738.4,-447 750.07,-447 760.53,-447"/>
<polygon fill="purple" stroke="purple" points="760.34,-450.5 770.34,-447 760.34,-443.5 760.34,-450.5"/>
</g>
<!-- importlib -->
<g id="node22" class="node">
<title>importlib</title>
<polygon fill="none" stroke="purple" points="92.88,-205 30.62,-205 26.62,-201 26.62,-169 88.88,-169 92.88,-173 92.88,-205"/>
<polyline fill="none" stroke="purple" points="88.88,-201 26.62,-201"/>
<polyline fill="none" stroke="purple" points="88.88,-201 88.88,-169"/>
<polyline fill="none" stroke="purple" points="88.88,-201 92.88,-205"/>
<text text-anchor="middle" x="59.75" y="-181.57" font-family="Times New Roman,serif" font-size="14.00">importlib</text>
</g>
<!-- importlib&#45;&gt;util.paths -->
<g id="edge40" class="edge">
<title>importlib&#45;&gt;util.paths</title>
<path fill="none" stroke="purple" stroke-dasharray="1,5" d="M93.09,-177.06C108.9,-172.2 128.13,-166.29 145.11,-161.07"/>
<polygon fill="purple" stroke="purple" points="145.81,-164.21 154.34,-157.92 143.75,-157.52 145.81,-164.21"/>
</g>
<!-- importlib.metadata -->
<g id="node23" class="node">
<title>importlib.metadata</title>
<polygon fill="none" stroke="purple" points="119.5,-151 4,-151 0,-147 0,-115 115.5,-115 119.5,-119 119.5,-151"/>
<polyline fill="none" stroke="purple" points="115.5,-147 0,-147"/>
<polyline fill="none" stroke="purple" points="115.5,-147 115.5,-115"/>
<polyline fill="none" stroke="purple" points="115.5,-147 119.5,-151"/>
<text text-anchor="middle" x="59.75" y="-127.58" font-family="Times New Roman,serif" font-size="14.00">importlib.metadata</text>
</g>
<!-- importlib.metadata&#45;&gt;util.paths -->
<g id="edge41" class="edge">
<title>importlib.metadata&#45;&gt;util.paths</title>
<path fill="none" stroke="purple" stroke-dasharray="1,5" d="M119.73,-139.97C128,-140.95 136.37,-141.94 144.28,-142.88"/>
<polygon fill="purple" stroke="purple" points="143.74,-146.45 154.09,-144.15 144.57,-139.5 143.74,-146.45"/>
</g>
<!-- re -->
<g id="node24" class="node">
<title>re</title>
<polygon fill="none" stroke="purple" points="86.75,-259 36.75,-259 32.75,-255 32.75,-223 82.75,-223 86.75,-227 86.75,-259"/>
<polyline fill="none" stroke="purple" points="82.75,-255 32.75,-255"/>
<polyline fill="none" stroke="purple" points="82.75,-255 82.75,-223"/>
<polyline fill="none" stroke="purple" points="82.75,-255 86.75,-259"/>
<text text-anchor="middle" x="59.75" y="-235.57" font-family="Times New Roman,serif" font-size="14.00">re</text>
</g>
<!-- re&#45;&gt;util.paths -->
<g id="edge42" class="edge">
<title>re&#45;&gt;util.paths</title>
<path fill="none" stroke="purple" stroke-dasharray="1,5" d="M87.22,-231.1C97.7,-226.61 109.59,-220.78 119.5,-214 121.95,-212.32 143.31,-191.54 161.46,-173.74"/>
<polygon fill="purple" stroke="purple" points="163.3,-176.87 167.98,-167.36 158.39,-171.87 163.3,-176.87"/>
</g>
<!-- glob -->
<g id="node25" class="node">
<title>glob</title>
<polygon fill="none" stroke="purple" points="215.62,-258 165.62,-258 161.62,-254 161.62,-222 211.62,-222 215.62,-226 215.62,-258"/>
<polyline fill="none" stroke="purple" points="211.62,-254 161.62,-254"/>
<polyline fill="none" stroke="purple" points="211.62,-254 211.62,-222"/>
<polyline fill="none" stroke="purple" points="211.62,-254 215.62,-258"/>
<text text-anchor="middle" x="188.62" y="-234.57" font-family="Times New Roman,serif" font-size="14.00">glob</text>
</g>
<!-- glob&#45;&gt;util.util -->
<g id="edge43" class="edge">
<title>glob&#45;&gt;util.util</title>
<path fill="none" stroke="purple" stroke-dasharray="1,5" d="M215.99,-250.96C228.55,-256.06 243.84,-262.06 257.75,-267 273.76,-272.69 291.67,-278.42 306.95,-283.13"/>
<polygon fill="purple" stroke="purple" points="305.48,-286.65 316.07,-286.22 307.52,-279.95 305.48,-286.65"/>
</g>
<!-- pathlib -->
<g id="node26" class="node">
<title>pathlib</title>
<polygon fill="none" stroke="purple" points="215.62,-366 165.62,-366 161.62,-362 161.62,-330 211.62,-330 215.62,-334 215.62,-366"/>
<polyline fill="none" stroke="purple" points="211.62,-362 161.62,-362"/>
<polyline fill="none" stroke="purple" points="211.62,-362 211.62,-330"/>
<polyline fill="none" stroke="purple" points="211.62,-362 215.62,-366"/>
<text text-anchor="middle" x="188.62" y="-342.57" font-family="Times New Roman,serif" font-size="14.00">pathlib</text>
</g>
<!-- pathlib&#45;&gt;util.util -->
<g id="edge44" class="edge">
<title>pathlib&#45;&gt;util.util</title>
<path fill="none" stroke="purple" stroke-dasharray="1,5" d="M216.08,-338.72C241.14,-329.92 279.01,-316.63 306.96,-306.82"/>
<polygon fill="purple" stroke="purple" points="307.86,-309.87 316.14,-303.25 305.54,-303.26 307.86,-309.87"/>
</g>
<!-- ast -->
<g id="node27" class="node">
<title>ast</title>
<polygon fill="none" stroke="purple" points="215.62,-312 165.62,-312 161.62,-308 161.62,-276 211.62,-276 215.62,-280 215.62,-312"/>
<polyline fill="none" stroke="purple" points="211.62,-308 161.62,-308"/>
<polyline fill="none" stroke="purple" points="211.62,-308 211.62,-276"/>
<polyline fill="none" stroke="purple" points="211.62,-308 215.62,-312"/>
<text text-anchor="middle" x="188.62" y="-288.57" font-family="Times New Roman,serif" font-size="14.00">ast</text>
</g>
<!-- ast&#45;&gt;util.util -->
<g id="edge45" class="edge">
<title>ast&#45;&gt;util.util</title>
<path fill="none" stroke="purple" stroke-dasharray="1,5" d="M216.08,-294C240.92,-294 278.35,-294 306.22,-294"/>
<polygon fill="purple" stroke="purple" points="306.14,-297.5 316.14,-294 306.14,-290.5 306.14,-297.5"/>
</g>
</g>
</svg>
