<?xml version="1.0" encoding="UTF-8" standalone="no"?>
<!DOCTYPE svg PUBLIC "-//W3C//DTD SVG 1.1//EN"
 "http://www.w3.org/Graphics/SVG/1.1/DTD/svg11.dtd">
<!-- Generated by graphviz version 2.50.0 (20211204.2007)
 -->
<!-- Pages: 1 -->
<svg width="1332pt" height="332pt"
 viewBox="0.00 0.00 1332.00 332.00" xmlns="http://www.w3.org/2000/svg" xmlns:xlink="http://www.w3.org/1999/xlink">
<g id="graph0" class="graph" transform="scale(1 1) rotate(0) translate(4 328)">
<polygon fill="white" stroke="transparent" points="-4,4 -4,-328 1328,-328 1328,4 -4,4"/>
<!-- tests.test_bool_array -->
<g id="node1" class="node">
<title>tests.test_bool_array</title>
<g id="a_node1"><a xlink:href="https://github.com/mivanit/ZANJ/tree/main/tests/test_bool_array.py" xlink:title="tests.test_bool_array">
<polygon fill="none" stroke="black" points="929.5,-324 801.5,-324 801.5,-288 935.5,-288 935.5,-318 929.5,-324"/>
<polyline fill="none" stroke="black" points="929.5,-324 929.5,-318 "/>
<polyline fill="none" stroke="black" points="935.5,-318 929.5,-318 "/>
<text text-anchor="middle" x="868.5" y="-302.3" font-family="Times New Roman,serif" font-size="14.00">tests.test_bool_array</text>
</a>
</g>
</g>
<!-- zanj -->
<g id="node2" class="node">
<title>zanj</title>
<g id="a_node2"><a xlink:href="https://github.com/mivanit/ZANJ/tree/main/zanj" xlink:title="zanj">
<polygon fill="none" stroke="black" points="696.5,-252 693.5,-256 672.5,-256 669.5,-252 642.5,-252 642.5,-216 696.5,-216 696.5,-252"/>
<text text-anchor="middle" x="669.5" y="-230.3" font-family="Times New Roman,serif" font-size="14.00">zanj</text>
</a>
</g>
</g>
<!-- tests.test_bool_array&#45;&gt;zanj -->
<g id="edge1" class="edge">
<title>tests.test_bool_array&#45;&gt;zanj</title>
<path fill="none" stroke="red" stroke-width="2" d="M810.16,-288C781.12,-279.08 745.42,-267.44 706.33,-252.12"/>
<polygon fill="red" stroke="red" stroke-width="2" points="707.45,-248.79 696.86,-248.36 704.86,-255.3 707.45,-248.79"/>
</g>
<!-- zanj.torchutil -->
<g id="node4" class="node">
<title>zanj.torchutil</title>
<g id="a_node4"><a xlink:href="https://github.com/mivanit/ZANJ/tree/main/zanj/torchutil.py" xlink:title="zanj.torchutil">
<polygon fill="none" stroke="black" points="857.5,-180 775.5,-180 775.5,-144 863.5,-144 863.5,-174 857.5,-180"/>
<polyline fill="none" stroke="black" points="857.5,-180 857.5,-174 "/>
<polyline fill="none" stroke="black" points="863.5,-174 857.5,-174 "/>
<text text-anchor="middle" x="819.5" y="-158.3" font-family="Times New Roman,serif" font-size="14.00">zanj.torchutil</text>
</a>
</g>
</g>
<!-- zanj&#45;&gt;zanj.torchutil -->
<g id="edge6" class="edge">
<title>zanj&#45;&gt;zanj.torchutil</title>
<path fill="none" stroke="black" stroke-width="3" d="M696.8,-215.86C719.33,-205.3 744.37,-193.66 766,-183.99"/>
<polygon fill="black" stroke="black" stroke-width="3" points="767.64,-187.09 775.36,-179.83 764.8,-180.69 767.64,-187.09"/>
</g>
<!-- zanj.loading -->
<g id="node6" class="node">
<title>zanj.loading</title>
<g id="a_node6"><a xlink:href="https://github.com/mivanit/ZANJ/tree/main/zanj/loading.py" xlink:title="zanj.loading">
<polygon fill="none" stroke="black" points="791,-108 714,-108 714,-72 797,-72 797,-102 791,-108"/>
<polyline fill="none" stroke="black" points="791,-108 791,-102 "/>
<polyline fill="none" stroke="black" points="797,-102 791,-102 "/>
<text text-anchor="middle" x="755.5" y="-86.3" font-family="Times New Roman,serif" font-size="14.00">zanj.loading</text>
</a>
</g>
</g>
<!-- zanj&#45;&gt;zanj.loading -->
<g id="edge3" class="edge">
<title>zanj&#45;&gt;zanj.loading</title>
<path fill="none" stroke="black" stroke-width="3" d="M676.16,-215.94C683.3,-205.84 693.55,-192.59 701.5,-180 714.33,-159.68 726.48,-135.23 736.34,-117.1"/>
<polygon fill="black" stroke="black" stroke-width="3" points="739.47,-118.69 741.29,-108.26 733.36,-115.28 739.47,-118.69"/>
</g>
<!-- zanj&#45;&gt;zanj.loading -->
<g id="edge4" class="edge">
<title>zanj&#45;&gt;zanj.loading</title>
<path fill="none" stroke="blue" stroke-dasharray="5,2" d="M691.91,-215.94C701.3,-205.84 711.55,-192.59 719.5,-180 732.16,-159.96 744.14,-135.9 751.18,-117.86"/>
<polygon fill="blue" stroke="blue" points="754.55,-118.85 754.64,-108.26 747.96,-116.48 754.55,-118.85"/>
</g>
<!-- zanj.externals -->
<g id="node13" class="node">
<title>zanj.externals</title>
<g id="a_node13"><a xlink:href="https://github.com/mivanit/ZANJ/tree/main/zanj/externals.py" xlink:title="zanj.externals">
<polygon fill="none" stroke="black" points="687,-36 602,-36 602,0 693,0 693,-30 687,-36"/>
<polyline fill="none" stroke="black" points="687,-36 687,-30 "/>
<polyline fill="none" stroke="black" points="693,-30 687,-30 "/>
<text text-anchor="middle" x="647.5" y="-14.3" font-family="Times New Roman,serif" font-size="14.00">zanj.externals</text>
</a>
</g>
</g>
<!-- zanj&#45;&gt;zanj.externals -->
<g id="edge2" class="edge">
<title>zanj&#45;&gt;zanj.externals</title>
<path fill="none" stroke="black" stroke-width="3" d="M644.14,-215.84C615.24,-194.53 569.79,-155.16 552.5,-108 546.99,-92.98 544.4,-85.8 552.5,-72 561.53,-56.62 576.83,-45.37 592.55,-37.3"/>
<polygon fill="black" stroke="black" stroke-width="3" points="594.27,-40.36 601.8,-32.91 591.27,-34.03 594.27,-40.36"/>
</g>
<!-- zanj.serializing -->
<g id="node14" class="node">
<title>zanj.serializing</title>
<g id="a_node14"><a xlink:href="https://github.com/mivanit/ZANJ/tree/main/zanj/serializing.py" xlink:title="zanj.serializing">
<polygon fill="none" stroke="black" points="651.5,-108 561.5,-108 561.5,-72 657.5,-72 657.5,-102 651.5,-108"/>
<polyline fill="none" stroke="black" points="651.5,-108 651.5,-102 "/>
<polyline fill="none" stroke="black" points="657.5,-102 651.5,-102 "/>
<text text-anchor="middle" x="609.5" y="-86.3" font-family="Times New Roman,serif" font-size="14.00">zanj.serializing</text>
</a>
</g>
</g>
<!-- zanj&#45;&gt;zanj.serializing -->
<g id="edge5" class="edge">
<title>zanj&#45;&gt;zanj.serializing</title>
<path fill="none" stroke="black" stroke-width="3" d="M652.88,-215.7C644.38,-205.93 634.57,-193.09 628.5,-180 619.38,-160.35 614.58,-136.22 612.09,-118.05"/>
<polygon fill="black" stroke="black" stroke-width="3" points="615.56,-117.61 610.87,-108.11 608.61,-118.47 615.56,-117.61"/>
</g>
<!-- zanj.zanj -->
<g id="node15" class="node">
<title>zanj.zanj</title>
<g id="a_node15"><a xlink:href="https://github.com/mivanit/ZANJ/tree/main/zanj/zanj.py" xlink:title="zanj.zanj">
<polygon fill="none" stroke="black" points="695.5,-180 637.5,-180 637.5,-144 701.5,-144 701.5,-174 695.5,-180"/>
<polyline fill="none" stroke="black" points="695.5,-180 695.5,-174 "/>
<polyline fill="none" stroke="black" points="701.5,-174 695.5,-174 "/>
<text text-anchor="middle" x="669.5" y="-158.3" font-family="Times New Roman,serif" font-size="14.00">zanj.zanj</text>
</a>
</g>
</g>
<!-- zanj&#45;&gt;zanj.zanj -->
<g id="edge7" class="edge">
<title>zanj&#45;&gt;zanj.zanj</title>
<path fill="none" stroke="black" stroke-width="3" d="M663.58,-215.7C662.79,-207.98 662.56,-198.71 662.9,-190.11"/>
<polygon fill="black" stroke="black" stroke-width="3" points="666.4,-190.32 663.6,-180.1 659.42,-189.84 666.4,-190.32"/>
</g>
<!-- zanj&#45;&gt;zanj.zanj -->
<g id="edge8" class="edge">
<title>zanj&#45;&gt;zanj.zanj</title>
<path fill="none" stroke="blue" stroke-dasharray="5,2" d="M675.42,-215.7C676.21,-207.98 676.44,-198.71 676.1,-190.11"/>
<polygon fill="blue" stroke="blue" points="679.58,-189.84 675.4,-180.1 672.6,-190.32 679.58,-189.84"/>
</g>
<!-- tests.test_get_module_device -->
<g id="node3" class="node">
<title>tests.test_get_module_device</title>
<g id="a_node3"><a xlink:href="https://github.com/mivanit/ZANJ/tree/main/tests/test_get_module_device.py" xlink:title="tests.test_get_module_device">
<polygon fill="none" stroke="black" points="890.5,-252 714.5,-252 714.5,-216 896.5,-216 896.5,-246 890.5,-252"/>
<polyline fill="none" stroke="black" points="890.5,-252 890.5,-246 "/>
<polyline fill="none" stroke="black" points="896.5,-246 890.5,-246 "/>
<text text-anchor="middle" x="805.5" y="-230.3" font-family="Times New Roman,serif" font-size="14.00">tests.test_get_module_device</text>
</a>
</g>
</g>
<!-- tests.test_get_module_device&#45;&gt;zanj.torchutil -->
<g id="edge9" class="edge">
<title>tests.test_get_module_device&#45;&gt;zanj.torchutil</title>
<path fill="none" stroke="red" stroke-width="2" d="M808.96,-215.7C810.5,-207.98 812.36,-198.71 814.08,-190.11"/>
<polygon fill="red" stroke="red" stroke-width="2" points="817.55,-190.6 816.08,-180.1 810.69,-189.22 817.55,-190.6"/>
</g>
<!-- zanj.torchutil&#45;&gt;zanj -->
<g id="edge10" class="edge">
<title>zanj.torchutil&#45;&gt;zanj</title>
<path fill="none" stroke="red" stroke-width="2" d="M790.33,-180.13C769.19,-190.48 740.19,-203.96 714.5,-216 711.77,-217.28 708.93,-218.61 706.04,-219.95"/>
<polygon fill="red" stroke="red" stroke-width="2" points="704.44,-216.83 696.78,-224.16 707.34,-223.21 704.44,-216.83"/>
</g>
<!-- zanj.torchutil&#45;&gt;zanj.loading -->
<g id="edge11" class="edge">
<title>zanj.torchutil&#45;&gt;zanj.loading</title>
<path fill="none" stroke="red" stroke-width="2" d="M803.68,-143.7C795.93,-135.22 786.46,-124.86 777.98,-115.58"/>
<polygon fill="red" stroke="red" stroke-width="2" points="780.47,-113.12 771.14,-108.1 775.3,-117.85 780.47,-113.12"/>
</g>
<!-- tests.test_isolate_zanj_handler_store -->
<g id="node5" class="node">
<title>tests.test_isolate_zanj_handler_store</title>
<g id="a_node5"><a xlink:href="https://github.com/mivanit/ZANJ/tree/main/tests/test_isolate_zanj_handler_store.py" xlink:title="tests.test_isolate_zanj_handler_store">
<polygon fill="none" stroke="black" points="1318,-324 1103,-324 1103,-288 1324,-288 1324,-318 1318,-324"/>
<polyline fill="none" stroke="black" points="1318,-324 1318,-318 "/>
<polyline fill="none" stroke="black" points="1324,-318 1318,-318 "/>
<text text-anchor="middle" x="1213.5" y="-302.3" font-family="Times New Roman,serif" font-size="14.00">tests.test_isolate_zanj_handler_store</text>
</a>
</g>
</g>
<!-- tests.test_isolate_zanj_handler_store&#45;&gt;zanj -->
<g id="edge12" class="edge">
<title>tests.test_isolate_zanj_handler_store&#45;&gt;zanj</title>
<path fill="none" stroke="red" stroke-width="2" d="M1102.99,-289.02C1100.13,-288.67 1097.3,-288.33 1094.5,-288 925.26,-268.09 874.85,-296.67 706.33,-251.65"/>
<polygon fill="red" stroke="red" stroke-width="2" points="707.21,-248.26 696.64,-249.02 705.37,-255.02 707.21,-248.26"/>
</g>
<!-- tests.test_isolate_zanj_handler_store&#45;&gt;zanj.loading -->
<g id="edge13" class="edge">
<title>tests.test_isolate_zanj_handler_store&#45;&gt;zanj.loading</title>
<path fill="none" stroke="red" stroke-width="2" d="M1207.37,-287.66C1199.4,-267.56 1183.58,-234.79 1159.5,-216 1052.66,-132.61 889.82,-104.48 807.31,-95.29"/>
<polygon fill="red" stroke="red" stroke-width="2" points="807.49,-91.78 797.17,-94.21 806.75,-98.75 807.49,-91.78"/>
</g>
<!-- zanj.loading&#45;&gt;zanj.externals -->
<g id="edge14" class="edge">
<title>zanj.loading&#45;&gt;zanj.externals</title>
<path fill="none" stroke="red" stroke-width="2" d="M729.08,-71.88C715.09,-62.81 697.72,-51.55 682.61,-41.76"/>
<polygon fill="red" stroke="red" stroke-width="2" points="684.32,-38.69 674.02,-36.19 680.51,-44.57 684.32,-38.69"/>
</g>
<!-- tests.test_zanj_basic -->
<g id="node7" class="node">
<title>tests.test_zanj_basic</title>
<g id="a_node7"><a xlink:href="https://github.com/mivanit/ZANJ/tree/main/tests/test_zanj_basic.py" xlink:title="tests.test_zanj_basic">
<polygon fill="none" stroke="black" points="125,-324 0,-324 0,-288 131,-288 131,-318 125,-324"/>
<polyline fill="none" stroke="black" points="125,-324 125,-318 "/>
<polyline fill="none" stroke="black" points="131,-318 125,-318 "/>
<text text-anchor="middle" x="65.5" y="-302.3" font-family="Times New Roman,serif" font-size="14.00">tests.test_zanj_basic</text>
</a>
</g>
</g>
<!-- tests.test_zanj_basic&#45;&gt;zanj -->
<g id="edge15" class="edge">
<title>tests.test_zanj_basic&#45;&gt;zanj</title>
<path fill="none" stroke="red" stroke-width="2" d="M131.26,-289.61C134.38,-289.04 137.47,-288.49 140.5,-288 323.71,-258.17 545.54,-242.5 632.24,-237.15"/>
<polygon fill="red" stroke="red" stroke-width="2" points="632.6,-240.64 642.37,-236.54 632.18,-233.65 632.6,-240.64"/>
</g>
<!-- tests.test_zanj_populate_nested -->
<g id="node8" class="node">
<title>tests.test_zanj_populate_nested</title>
<g id="a_node8"><a xlink:href="https://github.com/mivanit/ZANJ/tree/main/tests/test_zanj_populate_nested.py" xlink:title="tests.test_zanj_populate_nested">
<polygon fill="none" stroke="black" points="337.5,-324 149.5,-324 149.5,-288 343.5,-288 343.5,-318 337.5,-324"/>
<polyline fill="none" stroke="black" points="337.5,-324 337.5,-318 "/>
<polyline fill="none" stroke="black" points="343.5,-318 337.5,-318 "/>
<text text-anchor="middle" x="246.5" y="-302.3" font-family="Times New Roman,serif" font-size="14.00">tests.test_zanj_populate_nested</text>
</a>
</g>
</g>
<!-- tests.test_zanj_populate_nested&#45;&gt;zanj -->
<g id="edge16" class="edge">
<title>tests.test_zanj_populate_nested&#45;&gt;zanj</title>
<path fill="none" stroke="red" stroke-width="2" d="M343.54,-288.94C435.27,-273.76 568.1,-251.78 632.17,-241.18"/>
<polygon fill="red" stroke="red" stroke-width="2" points="632.92,-244.6 642.21,-239.52 631.77,-237.7 632.92,-244.6"/>
</g>
<!-- tests.test_zanj_sdc_modelcfg -->
<g id="node9" class="node">
<title>tests.test_zanj_sdc_modelcfg</title>
<g id="a_node9"><a xlink:href="https://github.com/mivanit/ZANJ/tree/main/tests/test_zanj_sdc_modelcfg.py" xlink:title="tests.test_zanj_sdc_modelcfg">
<polygon fill="none" stroke="black" points="537.5,-324 361.5,-324 361.5,-288 543.5,-288 543.5,-318 537.5,-324"/>
<polyline fill="none" stroke="black" points="537.5,-324 537.5,-318 "/>
<polyline fill="none" stroke="black" points="543.5,-318 537.5,-318 "/>
<text text-anchor="middle" x="452.5" y="-302.3" font-family="Times New Roman,serif" font-size="14.00">tests.test_zanj_sdc_modelcfg</text>
</a>
</g>
</g>
<!-- tests.test_zanj_sdc_modelcfg&#45;&gt;zanj -->
<g id="edge17" class="edge">
<title>tests.test_zanj_sdc_modelcfg&#45;&gt;zanj</title>
<path fill="none" stroke="red" stroke-width="2" d="M505.31,-287.97C544.7,-275.26 597.53,-258.22 632.5,-246.94"/>
<polygon fill="red" stroke="red" stroke-width="2" points="633.86,-250.17 642.3,-243.77 631.71,-243.51 633.86,-250.17"/>
</g>
<!-- tests.test_zanj_serializable_dataclass -->
<g id="node10" class="node">
<title>tests.test_zanj_serializable_dataclass</title>
<g id="a_node10"><a xlink:href="https://github.com/mivanit/ZANJ/tree/main/tests/test_zanj_serializable_dataclass.py" xlink:title="tests.test_zanj_serializable_dataclass">
<polygon fill="none" stroke="black" points="777,-324 562,-324 562,-288 783,-288 783,-318 777,-324"/>
<polyline fill="none" stroke="black" points="777,-324 777,-318 "/>
<polyline fill="none" stroke="black" points="783,-318 777,-318 "/>
<text text-anchor="middle" x="672.5" y="-302.3" font-family="Times New Roman,serif" font-size="14.00">tests.test_zanj_serializable_dataclass</text>
</a>
</g>
</g>
<!-- tests.test_zanj_serializable_dataclass&#45;&gt;zanj -->
<g id="edge18" class="edge">
<title>tests.test_zanj_serializable_dataclass&#45;&gt;zanj</title>
<path fill="none" stroke="red" stroke-width="2" d="M671.76,-287.7C671.43,-279.98 671.03,-270.71 670.66,-262.11"/>
<polygon fill="red" stroke="red" stroke-width="2" points="674.16,-261.95 670.23,-252.1 667.16,-262.25 674.16,-261.95"/>
</g>
<!-- tests.test_zanj_torch -->
<g id="node11" class="node">
<title>tests.test_zanj_torch</title>
<g id="a_node11"><a xlink:href="https://github.com/mivanit/ZANJ/tree/main/tests/test_zanj_torch.py" xlink:title="tests.test_zanj_torch">
<polygon fill="none" stroke="black" points="1079,-324 954,-324 954,-288 1085,-288 1085,-318 1079,-324"/>
<polyline fill="none" stroke="black" points="1079,-324 1079,-318 "/>
<polyline fill="none" stroke="black" points="1085,-318 1079,-318 "/>
<text text-anchor="middle" x="1019.5" y="-302.3" font-family="Times New Roman,serif" font-size="14.00">tests.test_zanj_torch</text>
</a>
</g>
</g>
<!-- tests.test_zanj_torch&#45;&gt;zanj -->
<g id="edge19" class="edge">
<title>tests.test_zanj_torch&#45;&gt;zanj</title>
<path fill="none" stroke="red" stroke-width="2" d="M953.71,-289.8C950.6,-289.17 947.52,-288.57 944.5,-288 842.03,-268.7 810.13,-282.41 706.29,-251.74"/>
<polygon fill="red" stroke="red" stroke-width="2" points="707.27,-248.39 696.69,-248.84 705.25,-255.09 707.27,-248.39"/>
</g>
<!-- tests.test_zanj_torch&#45;&gt;zanj.torchutil -->
<g id="edge20" class="edge">
<title>tests.test_zanj_torch&#45;&gt;zanj.torchutil</title>
<path fill="none" stroke="red" stroke-width="2" d="M1079.2,-287.94C1096.71,-280.03 1113.94,-268.56 1124.5,-252 1133.1,-238.51 1134.83,-228.22 1124.5,-216 1092.69,-178.37 952.95,-167.45 874.04,-164.28"/>
<polygon fill="red" stroke="red" stroke-width="2" points="873.91,-160.78 863.79,-163.9 873.65,-167.77 873.91,-160.78"/>
</g>
<!-- tests.test_zanj_torch&#45;&gt;zanj.torchutil -->
<g id="edge21" class="edge">
<title>tests.test_zanj_torch&#45;&gt;zanj.torchutil</title>
<path fill="none" stroke="red" stroke-width="2" d="M1085.06,-292.38C1107.35,-284.53 1129.76,-271.97 1142.5,-252 1151.1,-238.51 1152.83,-228.22 1142.5,-216 1109.09,-176.48 956.65,-166.42 873.6,-163.86"/>
<polygon fill="red" stroke="red" stroke-width="2" points="873.68,-160.36 863.58,-163.58 873.48,-167.36 873.68,-160.36"/>
</g>
<!-- tests.test_zanj_torch_cfgmismatch -->
<g id="node12" class="node">
<title>tests.test_zanj_torch_cfgmismatch</title>
<g id="a_node12"><a xlink:href="https://github.com/mivanit/ZANJ/tree/main/tests/test_zanj_torch_cfgmismatch.py" xlink:title="tests.test_zanj_torch_cfgmismatch">
<polygon fill="none" stroke="black" points="1118.5,-252 914.5,-252 914.5,-216 1124.5,-216 1124.5,-246 1118.5,-252"/>
<polyline fill="none" stroke="black" points="1118.5,-252 1118.5,-246 "/>
<polyline fill="none" stroke="black" points="1124.5,-246 1118.5,-246 "/>
<text text-anchor="middle" x="1019.5" y="-230.3" font-family="Times New Roman,serif" font-size="14.00">tests.test_zanj_torch_cfgmismatch</text>
</a>
</g>
</g>
<!-- tests.test_zanj_torch&#45;&gt;tests.test_zanj_torch_cfgmismatch -->
<g id="edge22" class="edge">
<title>tests.test_zanj_torch&#45;&gt;tests.test_zanj_torch_cfgmismatch</title>
<path fill="none" stroke="black" stroke-width="3" d="M1019.5,-287.7C1019.5,-279.98 1019.5,-270.71 1019.5,-262.11"/>
<polygon fill="black" stroke="black" stroke-width="3" points="1023,-262.1 1019.5,-252.1 1016,-262.1 1023,-262.1"/>
</g>
<!-- tests.test_zanj_torch_cfgmismatch&#45;&gt;zanj.torchutil -->
<g id="edge23" class="edge">
<title>tests.test_zanj_torch_cfgmismatch&#45;&gt;zanj.torchutil</title>
<path fill="none" stroke="red" stroke-width="2" d="M970.83,-215.97C941.3,-205.63 903.59,-192.43 873.19,-181.79"/>
<polygon fill="red" stroke="red" stroke-width="2" points="874.2,-178.44 863.6,-178.44 871.88,-185.04 874.2,-178.44"/>
</g>
<!-- zanj.serializing&#45;&gt;zanj.externals -->
<g id="edge24" class="edge">
<title>zanj.serializing&#45;&gt;zanj.externals</title>
<path fill="none" stroke="red" stroke-width="2" d="M618.89,-71.7C623.26,-63.64 628.56,-53.89 633.4,-44.98"/>
<polygon fill="red" stroke="red" stroke-width="2" points="636.52,-46.56 638.21,-36.1 630.37,-43.22 636.52,-46.56"/>
</g>
<!-- zanj.zanj&#45;&gt;zanj.loading -->
<g id="edge26" class="edge">
<title>zanj.zanj&#45;&gt;zanj.loading</title>
<path fill="none" stroke="red" stroke-width="2" d="M690.76,-143.7C701.59,-134.88 714.92,-124.03 726.66,-114.47"/>
<polygon fill="red" stroke="red" stroke-width="2" points="728.94,-117.13 734.49,-108.1 724.52,-111.7 728.94,-117.13"/>
</g>
<!-- zanj.zanj&#45;&gt;zanj.externals -->
<g id="edge25" class="edge">
<title>zanj.zanj&#45;&gt;zanj.externals</title>
<path fill="none" stroke="red" stroke-width="2" d="M670.49,-143.76C671.16,-125.71 671.2,-96.6 666.5,-72 664.83,-63.26 661.95,-54.04 658.92,-45.78"/>
<polygon fill="red" stroke="red" stroke-width="2" points="662.12,-44.34 655.24,-36.28 655.59,-46.87 662.12,-44.34"/>
</g>
<!-- zanj.zanj&#45;&gt;zanj.serializing -->
<g id="edge27" class="edge">
<title>zanj.zanj&#45;&gt;zanj.serializing</title>
<path fill="none" stroke="red" stroke-width="2" d="M654.67,-143.7C647.48,-135.3 638.7,-125.07 630.81,-115.86"/>
<polygon fill="red" stroke="red" stroke-width="2" points="633.33,-113.42 624.16,-108.1 628.01,-117.97 633.33,-113.42"/>
</g>
</g>
</svg>
